# xmcd CD database file
#
# Track frame offsets:
#	150
#	17143
#	29908
#	47927
#	65473
#	79194
#	94944
#	111747
#	127371
#	147906
#	169056
#	183122
#	196207
#	207039
#	225158
#	241943
#	257282
#	270709
#
# Disc length: 3861 seconds
#
# Revision: 0
# Processed by: cddbd v1.5.2PL0 Copyright (c) Steve Scherf et al.
# Submitted via: CDex 1.51
#
DISCID=030f1312
DTITLE=Kentucky Five - goof ol' boys tour - Live in Schortens 2008
DYEAR=2008
DGENRE=Country
TTITLE0=Truck drivin' man
TTITLE1=Ashes of love
TTITLE2=That Summer
TTITLE3=Ich möcht' so gern Dave Dudley hör'n
TTITLE4=Don't rock the Jukebox
TTITLE5=Cottonfields
TTITLE6=Miles and Miles from Texas
TTITLE7=Beautyfull Body
TTITLE8=Der wilde Westen
TTITLE9=Merle Haggard Medley
TTITLE10=Thank God for the Radio
TTITLE11=Good ol' boys
TTITLE12=Two of a kind
TTITLE13=Achy breaky heart
TTITLE14=Auf der Autobahn
TTITLE15=Another good reason
TTITLE16=Tequila Sunrise
TTITLE17=Country Roads
EXTD=YEAR: 2008
EXTT0=
EXTT1=
EXTT2=
EXTT3=
EXTT4=
EXTT5=
EXTT6=
EXTT7=
EXTT8=
EXTT9=
EXTT10=
EXTT11=
EXTT12=
EXTT13=
EXTT14=
EXTT15=
EXTT16=
EXTT17=
PLAYORDER=
